<?xml version="1.0" standalone="no"?>
<!DOCTYPE svg PUBLIC "-//W3C//DTD SVG 20010904//EN"
 "http://www.w3.org/TR/2001/REC-SVG-20010904/DTD/svg10.dtd">
<svg version="1.0" xmlns="http://www.w3.org/2000/svg"
 width="350.000000pt" height="265.000000pt" viewBox="0 0 350.000000 265.000000"
 preserveAspectRatio="xMidYMid meet">

<g transform="translate(0.000000,265.000000) scale(0.100000,-0.100000)"
fill="#000000" stroke="none">
<path d="M2011 2624 c-146 -53 -288 -214 -375 -426 -52 -125 -100 -301 -127
-458 -18 -110 -23 -174 -23 -350 -2 -453 84 -808 255 -1055 196 -284 431 -327
646 -117 36 35 61 68 57 72 -5 5 -46 -9 -91 -32 -171 -85 -276 -54 -399 118
-176 247 -275 690 -245 1106 32 466 128 763 302 939 101 102 229 126 335 64
34 -20 49 -24 57 -16 16 16 -72 102 -140 137 -69 35 -184 43 -252 18z"/>
<path d="M2170 2451 c-51 -16 -87 -40 -127 -84 -77 -84 -98 -165 -24 -94 78
75 146 84 223 30 105 -73 125 -76 196 -33 29 18 31 23 21 41 -21 39 -83 100
-122 121 -44 22 -128 32 -167 19z"/>
<path d="M846 2223 c-10 -10 -7 -601 3 -608 17 -10 565 -33 577 -24 6 5 14 43
18 85 8 95 50 286 83 379 40 112 42 110 -52 112 -160 5 -521 40 -601 58 -12 2
-24 2 -28 -2z"/>
<path d="M2716 2170 c-62 -19 -101 -80 -93 -147 l5 -44 -210 -214 -209 -214
-41 15 c-81 28 -157 7 -216 -61 -41 -46 -52 -74 -52 -132 0 -57 22 -103 70
-147 69 -63 152 -69 238 -20 l42 25 188 -111 c746 -442 717 -424 714 -458 -8
-71 63 -164 134 -178 116 -22 212 63 202 180 -5 64 -36 108 -93 136 -53 26
-97 25 -151 -1 l-43 -22 -223 133 c-123 73 -325 193 -450 268 l-228 134 6 39
c5 26 1 54 -11 84 -9 25 -15 49 -13 54 2 6 95 103 208 217 l205 207 51 -2 c43
-2 57 3 83 25 88 74 73 187 -29 228 -45 18 -44 18 -84 6z"/>
<path d="M127 1634 c-9 -10 -9 -812 1 -817 4 -2 57 2 117 10 61 8 204 24 320
37 l210 22 0 364 0 365 -65 6 c-108 10 -575 21 -583 13z"/>
<path d="M847 1163 c-10 -9 -9 -621 1 -627 4 -2 66 4 137 15 72 10 226 30 344
43 117 14 218 29 222 33 6 6 -4 61 -24 134 -34 124 -48 190 -71 329 l-12 75
-295 3 c-162 1 -298 -1 -302 -5z"/>
<path d="M1985 449 c-14 -21 72 -121 130 -152 59 -32 176 -31 228 2 48 29 122
120 109 133 -5 5 -37 12 -71 15 -55 5 -67 3 -122 -27 -54 -28 -68 -32 -120
-28 -46 3 -69 11 -104 36 -24 17 -47 27 -50 21z"/>
</g>
</svg>
