<?xml version="1.0" standalone="no"?>
<!DOCTYPE svg PUBLIC "-//W3C//DTD SVG 20010904//EN"
 "http://www.w3.org/TR/2001/REC-SVG-20010904/DTD/svg10.dtd">
<svg version="1.0" xmlns="http://www.w3.org/2000/svg"
 width="557.000000pt" height="570.000000pt" viewBox="0 0 557.000000 570.000000"
 preserveAspectRatio="xMidYMid meet">

<g transform="translate(0.000000,570.000000) scale(0.100000,-0.100000)"
fill="#000000" stroke="none">
<path d="M4986 5500 c-45 -14 -73 -47 -128 -153 -54 -103 -115 -171 -164 -183
-17 -4 -60 2 -118 19 -140 39 -151 40 -227 22 -102 -25 -166 -73 -323 -238
-119 -125 -150 -153 -209 -182 -38 -19 -84 -35 -102 -35 -42 0 -93 36 -116 80
-24 47 -13 89 41 154 34 41 40 55 40 96 0 116 -102 155 -287 110 -128 -30
-240 -93 -392 -220 l-59 -49 -138 7 -139 8 49 24 c63 31 89 66 89 119 0 117
-115 152 -338 103 -187 -42 -304 -108 -428 -243 l-74 -80 -129 -43 c-234 -79
-414 -169 -624 -314 -478 -328 -828 -826 -969 -1383 -113 -446 -106 -840 23
-1285 163 -560 555 -1066 1079 -1393 414 -257 999 -401 1478 -362 316 26 638
109 913 235 223 102 492 292 682 481 389 386 615 835 700 1395 24 157 24 471
0 630 -51 336 -161 650 -317 908 -21 35 -39 67 -39 71 0 4 12 18 26 32 14 13
47 56 73 95 88 131 116 305 76 477 -20 91 -49 132 -104 147 -56 15 -96 -2
-165 -68 -61 -59 -152 -119 -163 -109 -8 9 33 62 78 100 22 19 92 58 157 86
146 65 243 130 305 207 177 218 210 568 66 699 -22 19 -45 35 -53 35 -8 0 -20
2 -28 4 -7 2 -26 0 -42 -4z m70 -192 c33 -100 2 -269 -73 -404 -50 -90 -98
-127 -280 -215 -153 -75 -174 -89 -238 -154 -74 -73 -125 -159 -125 -207 0
-16 12 -41 29 -60 27 -31 34 -33 94 -33 82 0 170 43 262 127 63 58 64 59 76
36 7 -13 15 -69 17 -125 4 -87 1 -113 -17 -170 -35 -109 -95 -185 -200 -254
l-24 -15 30 -45 c16 -24 32 -52 36 -61 7 -20 16 -23 -108 36 -117 56 -293 103
-488 131 -27 4 -51 13 -53 19 -3 7 8 115 24 242 17 131 26 234 21 240 -5 6
-55 16 -111 23 -57 7 -170 21 -253 32 -197 25 -213 25 -225 -3 -5 -13 -20
-120 -35 -238 -14 -118 -29 -218 -33 -222 -9 -9 -333 30 -346 42 -5 5 4 110
20 239 25 202 26 233 14 245 -21 19 -558 82 -573 67 -7 -7 -24 -111 -39 -233
-15 -121 -30 -228 -33 -236 -4 -12 -17 -13 -68 -8 -105 11 -388 45 -466 56
-43 6 -78 7 -83 2 -13 -13 -80 -554 -71 -563 4 -4 123 -21 263 -38 140 -17
257 -35 261 -39 8 -9 -270 -2234 -280 -2245 -4 -4 -124 7 -265 24 -154 19
-261 28 -267 22 -5 -5 -22 -117 -38 -248 -39 -316 -39 -306 -21 -316 8 -5 145
-24 304 -43 158 -19 292 -38 296 -43 9 -11 -32 -339 -45 -352 -13 -13 -212 61
-352 132 -612 307 -1057 850 -1223 1491 -59 225 -65 278 -65 576 0 293 6 346
60 560 125 493 416 933 823 1248 219 168 514 319 772 393 60 18 71 25 170 127
91 94 116 114 190 149 112 54 269 90 284 64 3 -4 -21 -25 -53 -45 -69 -42
-154 -126 -171 -167 -23 -56 -21 -56 207 -51 115 2 250 -1 302 -7 l93 -10 77
68 c145 128 270 199 386 221 94 18 103 11 60 -48 -19 -27 -40 -72 -47 -101
-16 -70 8 -146 64 -207 82 -89 178 -113 294 -74 90 31 151 79 302 239 197 207
263 236 414 183 138 -49 218 -38 304 41 59 54 115 129 158 215 15 29 31 50 36
47 4 -3 16 -28 26 -57z m-1891 -1888 c127 -15 457 -56 605 -75 275 -36 378
-72 460 -162 63 -69 84 -131 83 -243 -2 -135 -51 -241 -141 -300 -115 -76
-244 -93 -497 -66 -418 46 -761 89 -769 96 -9 9 78 742 90 762 3 5 22 7 43 4
20 -3 77 -10 126 -16z m1835 -905 c0 -107 -6 -233 -15 -302 -16 -121 -61 -332
-75 -346 -4 -5 -24 14 -44 42 -20 27 -72 82 -115 123 -65 61 -111 93 -270 186
-10 5 18 24 93 61 159 79 295 212 376 368 18 34 37 60 41 57 5 -3 9 -88 9
-189z m-1815 -470 c673 -80 836 -119 953 -229 129 -121 163 -308 92 -499 -42
-112 -156 -205 -287 -232 -120 -26 -238 -18 -833 55 -91 11 -211 26 -268 32
-57 6 -109 16 -116 22 -12 9 -5 81 40 441 30 237 57 436 59 443 3 9 14 12 32
8 16 -3 163 -22 328 -41z m-390 -1460 c77 -9 145 -17 151 -19 7 -3 4 -57 -10
-171 -19 -148 -23 -169 -41 -176 -11 -4 -91 -8 -178 -8 -118 -1 -159 2 -162
11 -6 17 38 360 48 376 5 6 18 10 30 7 12 -2 85 -11 162 -20z m934 -110 c11
-11 0 -19 -64 -49 -107 -50 -109 -50 -113 3 -5 69 -3 70 85 64 43 -3 84 -11
92 -18z"/>
</g>
</svg>
